name Walk10.mot
datacolumns 19
datarows 20
range 1.08000000 1.17500000
endheader

                time	   L_ground_force_vx	   L_ground_force_vy	   L_ground_force_vz	   L_ground_force_px	   L_ground_force_py	   L_ground_force_pz	   R_ground_force_vx	   R_ground_force_vy	   R_ground_force_vz	   R_ground_force_px	   R_ground_force_py	   R_ground_force_pz	   L_ground_torque_x	   L_ground_torque_y	   L_ground_torque_z	   R_ground_torque_x	   R_ground_torque_y	   R_ground_torque_z	
          1.08000000	         -4.69126159	        128.54937834	        -10.56489760	         -0.12454518	          0.00000000	          0.00458754	          0.00000001	         -0.00000002	          0.00000000	          0.00000000	          0.00000000	          0.00000000	          0.00000000	          0.19848719	          0.00000000	          0.00000000	         -0.00000000	          0.00000000	
          1.08500000	         -9.39987536	        176.54998576	        -13.99151219	         -0.16117924	          0.00000000	          0.00603640	          0.00000002	          0.00000005	          0.00000001	          0.00000000	          0.00000000	          0.00000000	          0.00000000	          0.31452933	          0.00000000	          0.00000000	         -0.00000000	          0.00000000	
          1.09000000	        -15.58282473	        229.63334385	        -17.60968186	         -0.19847147	          0.00000000	          0.00755178	          0.00000002	          0.00000014	          0.00000001	          0.00000000	          0.00000000	          0.00000000	          0.00000000	          0.45671623	          0.00000000	          0.00000000	         -0.00000000	          0.00000000	
          1.09500000	        -23.29271686	        284.41574922	        -21.09399221	         -0.23327974	          0.00000000	          0.00900417	          0.00000002	          0.00000027	          0.00000003	          0.00000000	          0.00000000	          0.00000000	          0.00000000	          0.62296812	          0.00000000	          0.00000000	         -0.00000001	          0.00000000	
          1.10000000	        -32.39192704	        337.35513781	        -24.02834016	         -0.26350213	          0.00000000	          0.01027207	          0.00000002	          0.00000045	          0.00000004	          0.00000000	          0.00000000	          0.00000000	          0.00000000	          0.80989148	          0.00000000	          0.00000000	         -0.00000001	          0.00000000	
          1.10500000	        -42.49265959	        386.24853339	        -26.00648722	         -0.28814859	          0.00000000	          0.01126878	          0.00000002	          0.00000066	          0.00000005	          0.00000000	          0.00000000	          0.00000000	          0.00000000	          1.01241506	          0.00000000	          0.00000000	         -0.00000001	          0.00000000	
          1.11000000	        -53.00156189	        429.95932274	        -26.74804250	         -0.30702024	          0.00000000	          0.01194546	          0.00000002	          0.00000092	          0.00000007	          0.00000000	          0.00000000	          0.00000000	          0.00000000	          1.22293228	          0.00000000	          0.00000000	         -0.00000001	          0.00000000	
          1.11500000	        -63.28127057	        468.08798201	        -26.14347637	         -0.32043638	          0.00000000	          0.01228921	          0.00000001	          0.00000120	          0.00000009	          0.00000000	          0.00000000	          0.00000000	          0.00000000	          1.43143529	          0.00000000	          0.00000000	         -0.00000000	          0.00000000	
          1.12000000	        -72.89018860	        500.97111454	        -24.23185792	         -0.32902009	          0.00000000	          0.01231613	         -0.00000000	          0.00000149	          0.00000011	          0.00000000	          0.00000000	          0.00000000	          0.00000000	          1.62775082	          0.00000000	          0.00000000	         -0.00000000	          0.00000000	
          1.12500000	        -81.73048031	        529.47555440	        -21.15228947	         -0.33353888	          0.00000000	          0.01206527	         -0.00000003	          0.00000176	          0.00000012	          0.00000000	          0.00000000	          0.00000000	          0.00000000	          1.80274498	          0.00000000	          0.00000000	          0.00000000	          0.00000000	
          1.13000000	        -89.97237301	        554.67859490	        -17.09311096	         -0.33479921	          0.00000000	          0.01159049	         -0.00000006	          0.00000197	          0.00000013	          0.00000000	          0.00000000	          0.00000000	          0.00000000	          1.94849304	          0.00000000	          0.00000000	          0.00000001	          0.00000000	
          1.13500000	        -97.81532697	        577.61210292	        -12.25773815	         -0.33358694	          0.00000000	          0.01095252	         -0.00000010	          0.00000205	          0.00000012	          0.00000000	          0.00000000	          0.00000000	          0.00000000	          2.05827444	          0.00000000	          0.00000000	          0.00000002	          0.00000000	
          1.14000000	       -105.28404165	        599.11874605	         -6.84532497	         -0.33063056	          0.00000000	          0.01021101	         -0.00000016	          0.00000192	          0.00000010	          0.00000000	          0.00000000	          0.00000000	          0.00000000	          2.12898043	          0.00000000	          0.00000000	          0.00000003	          0.00000000	
          1.14500000	       -112.18030538	        619.77036009	         -1.03278141	         -0.32657563	          0.00000000	          0.00941966	         -0.00000023	          0.00000148	          0.00000005	          0.00000000	          0.00000000	          0.00000000	          0.00000000	          2.16243144	          0.00000000	          0.00000000	          0.00000005	          0.00000000	
          1.15000000	       -118.16582588	        639.81763102	          5.01203658	         -0.32196914	          0.00000000	          0.00862381	         -0.00000030	          0.00000062	         -0.00000003	         -0.00000000	          0.00000000	         -0.00000000	          0.00000000	          2.16597086	          0.00000000	          0.00000000	          0.00000006	          0.00000000	
          1.15500000	       -122.87653204	        659.19498745	         11.10407827	         -0.31724975	          0.00000000	          0.00786184	         -0.00000038	         -0.00000080	         -0.00000015	         -0.00000000	          0.00000000	         -0.00000000	          0.00000000	          2.15071952	          0.00000000	          0.00000000	          0.00000008	          0.00000000	
          1.16000000	       -126.01170775	        677.61302784	         17.04620826	         -0.31274217	          0.00000000	          0.00716277	         -0.00000046	         -0.00000292	         -0.00000032	         -0.00000000	          0.00000000	         -0.00000000	          0.00000000	          2.12764594	          0.00000000	          0.00000000	          0.00000010	          0.00000000	
          1.16500000	       -127.39103957	        694.69109777	         22.66859467	         -0.30866073	          0.00000000	          0.00654547	         -0.00000052	         -0.00000587	         -0.00000054	         -0.00000001	          0.00000000	         -0.00000000	          0.00000000	          2.10314707	          0.00000000	          0.00000000	          0.00000012	          0.00000000	
          1.17000000	       -126.97658415	        710.02207139	         27.85843971	         -0.30512118	          0.00000000	          0.00601783	         -0.00000056	         -0.00000974	         -0.00000083	         -0.00000001	          0.00000000	         -0.00000000	          0.00000000	          2.07742535	          0.00000000	          0.00000000	          0.00000013	          0.00000000	
          1.17500000	       -124.86851801	        723.17838362	         32.55001319	         -0.30215630	          0.00000000	          0.00557940	         -0.00000055	         -0.00001458	         -0.00000117	         -0.00000002	          0.00000000	         -0.00000001	          0.00000000	          2.04683955	          0.00000000	          0.00000000	          0.00000014	          0.00000000	
